<svg width="696" height="122" viewBox="0 0 696 122" fill="none" xmlns="http://www.w3.org/2000/svg">
<path d="M539.739 16.1173L522.431 58.6997L496.176 30.7836L539.739 16.1173Z" fill="#00A3FF"/>
<path d="M522.692 33.0089L489.063 62.0366" stroke="#00A3FF" stroke-width="4"/>
<path d="M3.968 79V34.2H16.384L34.304 63.448H27.776L45.184 34.2H57.6L57.728 79H43.968L43.84 54.936H46.016L34.112 74.968H27.456L15.04 54.936H17.728V79H3.968ZM83.065 79.64C79.097 79.64 75.577 78.872 72.505 77.336C69.4757 75.7573 67.0863 73.6027 65.337 70.872C63.5877 68.1413 62.713 65.0053 62.713 61.464C62.713 57.9227 63.5877 54.7867 65.337 52.056C67.0863 49.3253 69.4757 47.192 72.505 45.656C75.577 44.12 79.097 43.352 83.065 43.352C87.033 43.352 90.553 44.12 93.625 45.656C96.697 47.192 99.0863 49.3253 100.793 52.056C102.542 54.7867 103.417 57.9227 103.417 61.464C103.417 65.0053 102.542 68.1413 100.793 70.872C99.0863 73.6027 96.697 75.7573 93.625 77.336C90.553 78.872 87.033 79.64 83.065 79.64ZM83.065 68.376C84.1317 68.376 85.0917 68.12 85.945 67.608C86.7983 67.096 87.481 66.328 87.993 65.304C88.505 64.2373 88.761 62.9573 88.761 61.464C88.761 59.928 88.505 58.6693 87.993 57.688C87.481 56.664 86.7983 55.896 85.945 55.384C85.0917 54.872 84.1317 54.616 83.065 54.616C81.9983 54.616 81.0383 54.872 80.185 55.384C79.3317 55.896 78.649 56.664 78.137 57.688C77.625 58.6693 77.369 59.928 77.369 61.464C77.369 62.9573 77.625 64.2373 78.137 65.304C78.649 66.328 79.3317 67.096 80.185 67.608C81.0383 68.12 81.9983 68.376 83.065 68.376ZM107.892 79V43.992H122.292V56.28H132.148V43.992H146.548V79H132.148V67.608H122.292V79H107.892ZM161.394 79V52.184L164.53 55.256H150.706V43.992H186.482V55.256H172.658L175.794 52.184V79H161.394ZM211.058 79V72.792L210.034 71.128V59.352C210.034 57.6453 209.501 56.344 208.434 55.448C207.41 54.552 205.725 54.104 203.378 54.104C201.799 54.104 200.199 54.36 198.578 54.872C196.957 55.3413 195.57 56.0027 194.418 56.856L189.81 47.32C191.858 46.04 194.311 45.0587 197.17 44.376C200.029 43.6933 202.823 43.352 205.554 43.352C211.57 43.352 216.221 44.696 219.506 47.384C222.834 50.072 224.498 54.3387 224.498 60.184V79H211.058ZM201.138 79.64C198.279 79.64 195.89 79.1493 193.97 78.168C192.05 77.1867 190.599 75.8853 189.618 74.264C188.637 72.6 188.146 70.7653 188.146 68.76C188.146 66.4987 188.722 64.5787 189.874 63C191.026 61.4213 192.775 60.2267 195.122 59.416C197.511 58.6053 200.519 58.2 204.146 58.2H211.442V65.176H206.45C204.914 65.176 203.783 65.432 203.058 65.944C202.375 66.4133 202.034 67.1387 202.034 68.12C202.034 68.9307 202.333 69.6133 202.93 70.168C203.57 70.68 204.423 70.936 205.49 70.936C206.471 70.936 207.367 70.68 208.178 70.168C209.031 69.6133 209.65 68.76 210.034 67.608L211.89 71.896C211.335 74.4987 210.162 76.44 208.37 77.72C206.578 79 204.167 79.64 201.138 79.64ZM273.336 79L266.04 62.936L277.688 56.152L290.424 79H273.336ZM261.624 67.352V56.28H274.616V67.352H261.624ZM279.16 63.064L265.592 61.784L274.488 43.992H289.72L279.16 63.064ZM243.96 79H226.936L239.608 56.152L251.256 62.936L243.96 79ZM265.848 79H251.576V43.992H265.848V79ZM255.736 67.352H242.744V56.28H255.736V67.352ZM238.136 63.064L227.64 43.992H242.872L251.64 61.784L238.136 63.064ZM321.863 79L310.727 58.008L322.759 50.968L338.887 79H321.863ZM293.959 79V34.2H309.063V79H293.959ZM304.711 62.808V50.904H321.671V62.808H304.711ZM324.231 58.2L310.343 56.792L323.207 34.2H338.951L324.231 58.2ZM340.017 79L340.593 67.288C340.849 67.3307 341.105 67.3733 341.361 67.416C341.617 67.416 341.851 67.416 342.065 67.416C343.003 67.416 343.75 67.2453 344.305 66.904C344.859 66.52 345.286 65.9867 345.585 65.304C345.926 64.5787 346.161 63.7253 346.289 62.744C346.417 61.72 346.502 60.5467 346.545 59.224L347.057 43.992H380.465V79H366.001V52.248L369.137 55.256H356.593L359.537 52.056L359.217 59.8C359.089 62.9573 358.811 65.7947 358.385 68.312C357.958 70.7867 357.275 72.8987 356.337 74.648C355.441 76.3547 354.203 77.6773 352.625 78.616C351.089 79.512 349.126 79.96 346.737 79.96C345.798 79.96 344.753 79.8747 343.601 79.704C342.491 79.5333 341.297 79.2987 340.017 79ZM387.267 79V43.992H401.667V59.8L413.763 43.992H427.075V79H412.675V63.128L400.643 79H387.267ZM458.022 79L448.422 62.936L460.07 56.152L475.046 79H458.022ZM433.83 79V43.992H448.294V79H433.83ZM444.07 67.352V56.28H457.126V67.352H444.07ZM461.542 63.064L447.974 61.784L459.11 43.992H474.342L461.542 63.064Z" fill="#00A3FF"/>
</svg>
